<svg xmlns="http://www.w3.org/2000/svg" version="1.1" xmlns:xlink="http://www.w3.org/1999/xlink" xmlns:svgjs="http://svgjs.dev/svgjs" width="128" height="128" viewBox="0 0 128 128"><g transform="matrix(0.8046875,0,0,0.8046875,12.760752631578946,22.753758400037974)"><svg viewBox="0 0 95 76" data-background-color="#111111" preserveAspectRatio="xMidYMid meet" height="102" width="128" xmlns="http://www.w3.org/2000/svg" xmlns:xlink="http://www.w3.org/1999/xlink"><g id="tight-bounds" transform="matrix(1,0,0,1,-0.24049999999999727,0.19183688220356032)"><svg viewBox="0 0 95.481 75.61632623559288" height="75.61632623559288" width="95.481"><g><svg viewBox="0 0 95.481 75.61632623559288" height="75.61632623559288" width="95.481"><g><svg viewBox="0 0 95.481 75.61632623559288" height="75.61632623559288" width="95.481"><g id="textblocktransform"><svg viewBox="0 0 95.481 75.61632623559288" height="75.61632623559288" width="95.481" id="textblock"><g><svg viewBox="0 0 95.481 75.61632623559288" height="75.61632623559288" width="95.481"><g><svg viewBox="0 0 95.481 75.61632623559288" height="75.61632623559288" width="95.481"><g><svg xmlns="http://www.w3.org/2000/svg" xmlns:xlink="http://www.w3.org/1999/xlink" version="1.1" x="0" y="0" viewBox="0 53.3 511.9 405.4" style="enable-background:new 0 0 512 512;" xml:space="preserve" height="75.61632623559288" width="95.481" class="icon-icon-0" data-fill-palette-color="accent" id="icon-0"><g fill="#ffffff" data-fill-palette-color="accent"><path d="M490.7 53.3H21.3v320h469.3V53.3zM277.3 138.6h160V160h-160V138.6zM341.3 192v21.3h-32V192H341.3zM288 192v21.3H160V192H288zM256 160h-42.7v-21.3H256V160zM192 85.3h53.3v21.3H192V85.3zM74.7 85.3h96v21.3h-96V85.3zM74.7 138.6H192V160H74.7V138.6zM74.7 192h64v21.3h-64V192zM74.7 245.3h96v21.3h-96V245.3zM234.7 341.3h-160V320h160V341.3zM245.3 266.6H192v-21.3h53.3V266.6zM322.2 307.1l-15.1 15.1-44.9-44.9 44.9-44.9 15.1 15.1-29.8 29.8L322.2 307.1zM345.9 334.6l-19.8-7.9L368.8 220l19.8 7.9L345.9 334.6zM407.5 322.2l-15.1-15.1 29.8-29.8-29.8-29.8 15.1-15.1 44.9 44.9L407.5 322.2z" fill="#000000" data-fill-palette-color="accent"></path><path d="M0 394.7v24.5l26.2 39.5h459.5l26.2-39.5v-24.5H0zM224 437.3h-21.3V416H224V437.3zM266.7 437.3h-21.3V416h21.3V437.3zM309.3 437.3H288V416h21.3V437.3z" fill="#000000" data-fill-palette-color="accent"></path></g></svg></g></svg></g></svg></g></svg></g></svg></g></svg></g><defs></defs></svg><rect width="95.481" height="75.61632623559288" fill="none" stroke="none" visibility="hidden"></rect></g></svg></g></svg>